<svg width="41" height="46" viewBox="0 0 41 46" fill="none" xmlns="http://www.w3.org/2000/svg">
<path d="M14.443 33.2473L20.3596 39.08L26.2762 33.2473L20.3596 27.4147L14.443 33.2473ZM20.3596 4.94084V4.94961C18.6662 4.94961 16.9728 5.58696 15.6827 6.85873L15.6768 6.85289C14.3896 8.12466 13.7431 9.79697 13.7431 11.4693C13.7431 13.1445 14.3867 14.8139 15.6708 16.0798H15.6797L20.3596 20.6904L25.0366 16.0798H25.0455C26.3385 14.8051 26.985 13.1357 26.985 11.4693H26.9761C26.9761 9.7999 26.3296 8.13051 25.0395 6.85873C23.7405 5.58111 22.0471 4.94084 20.3596 4.94084ZM29.6868 36.6095L22.0649 44.1232L20.3596 45.8043L18.6543 44.1232L11.0325 36.6095L3.41057 44.1232L0 40.761L16.952 24.0526L12.2751 19.442L12.281 19.4362C10.0419 17.2317 8.92383 14.3461 8.92383 11.4693C8.92383 8.58952 10.0419 5.70683 12.2751 3.50534V3.49949C14.5083 1.29801 17.4354 0.195801 20.3596 0.195801V0.204572C23.2898 0.204572 26.2199 1.30385 28.4471 3.49949C30.6803 5.70098 31.7954 8.58659 31.7954 11.4722H31.7865C31.7865 14.3549 30.6714 17.2376 28.4412 19.4391L28.4471 19.4449L23.7702 24.0526L40.7193 40.761L37.3087 44.1232L29.6868 36.6095Z" fill="white"/>
</svg>
