<svg aria-hidden="true" style="position: absolute; width: 0; height: 0; overflow: hidden;" version="1.1" xmlns="http://www.w3.org/2000/svg" xmlns:xlink="http://www.w3.org/1999/xlink">
<defs>
<symbol id="icon-facebook" viewBox="0 0 32 32">
<path d="M15.949 0.485c2.885 0.033 5.491 0.742 7.818 2.127 2.299 1.357 4.212 3.282 5.556 5.59 1.377 2.341 2.081 4.963 2.114 7.865-0.082 3.971-1.334 7.362-3.757 10.175s-5.526 4.552-8.739 5.219v-11.133h3.037l0.687-4.375h-4.599v-2.866c-0.026-0.594 0.162-1.178 0.53-1.645 0.368-0.469 1.015-0.715 1.943-0.739h2.777v-3.832c-0.040-0.013-0.418-0.064-1.134-0.152-0.812-0.095-1.63-0.146-2.448-0.152-1.851 0.009-3.316 0.531-4.393 1.567s-1.627 2.534-1.651 4.495v3.325h-3.5v4.375h3.5v11.133c-3.945-0.667-7.048-2.407-9.471-5.219s-3.675-6.204-3.757-10.175c0.033-2.902 0.737-5.524 2.114-7.865 1.343-2.308 3.256-4.232 5.556-5.59 2.327-1.385 4.933-2.094 7.818-2.127z"></path>
</symbol>
<symbol id="icon-instagram" viewBox="0 0 32 32">
<path d="M16.315 32c-0.106 0-0.212 0-0.319-0-2.508 0.006-4.826-0.058-7.080-0.195-2.066-0.126-3.953-0.84-5.455-2.065-1.45-1.182-2.44-2.781-2.942-4.75-0.438-1.715-0.461-3.398-0.483-5.026-0.016-1.168-0.033-2.552-0.036-3.96 0.003-1.413 0.020-2.798 0.036-3.966 0.022-1.628 0.045-3.311 0.483-5.026 0.503-1.97 1.493-3.568 2.942-4.75 1.502-1.225 3.389-1.939 5.455-2.065 2.254-0.137 4.572-0.201 7.086-0.195 2.509-0.005 4.826 0.058 7.080 0.195 2.066 0.126 3.953 0.84 5.455 2.065 1.45 1.182 2.44 2.781 2.942 4.75 0.438 1.715 0.461 3.398 0.483 5.026 0.016 1.168 0.033 2.553 0.036 3.96v0.006c-0.003 1.408-0.020 2.792-0.036 3.96-0.022 1.628-0.045 3.311-0.483 5.026-0.503 1.97-1.492 3.568-2.942 4.75-1.502 1.225-3.389 1.939-5.455 2.065-2.159 0.131-4.376 0.195-6.767 0.195zM15.996 29.499c2.468 0.006 4.733-0.056 6.934-0.19 1.563-0.095 2.917-0.602 4.027-1.507 1.026-0.837 1.732-1.991 2.1-3.431 0.364-1.427 0.385-2.96 0.405-4.442 0.016-1.16 0.032-2.535 0.036-3.929-0.003-1.394-0.020-2.768-0.036-3.929-0.020-1.482-0.041-3.015-0.405-4.443-0.367-1.44-1.074-2.594-2.1-3.431-1.11-0.905-2.465-1.412-4.027-1.507-2.201-0.134-4.466-0.196-6.928-0.19-2.467-0.006-4.733 0.056-6.934 0.19-1.563 0.095-2.917 0.602-4.027 1.507-1.026 0.837-1.732 1.991-2.1 3.431-0.364 1.428-0.385 2.96-0.406 4.443-0.016 1.161-0.032 2.537-0.036 3.932 0.003 1.389 0.020 2.765 0.036 3.926 0.020 1.482 0.041 3.015 0.406 4.442 0.367 1.44 1.074 2.594 2.1 3.431 1.11 0.905 2.465 1.412 4.027 1.507 2.201 0.134 4.467 0.197 6.928 0.19zM15.937 23.812c-4.308 0-7.813-3.505-7.813-7.813s3.505-7.813 7.813-7.813c4.308 0 7.813 3.505 7.813 7.813s-3.505 7.813-7.813 7.813zM15.937 10.687c-2.929 0-5.313 2.383-5.313 5.313s2.383 5.313 5.313 5.313c2.929 0 5.313-2.383 5.313-5.313s-2.383-5.313-5.313-5.313zM24.624 5.687c-1.035 0-1.875 0.839-1.875 1.875s0.84 1.875 1.875 1.875c1.036 0 1.875-0.839 1.875-1.875s-0.839-1.875-1.875-1.875z"></path>
</symbol>
<symbol id="icon-logo" viewBox="0 0 29 32">
<path d="M10.047 23.129l4.116 4.058 4.116-4.058-4.116-4.057-4.116 4.057zM14.163 3.437v0.006c-1.178 0-2.356 0.443-3.253 1.328l-0.004-0.004c-0.895 0.885-1.345 2.048-1.345 3.211 0 1.165 0.448 2.327 1.341 3.207h0.006l3.256 3.207 3.254-3.207h0.006c0.899-0.887 1.349-2.048 1.349-3.207h-0.006c0-1.161-0.45-2.323-1.347-3.207-0.904-0.889-2.082-1.334-3.256-1.334zM20.652 25.467l-6.489 6.396-6.488-6.396-5.302 5.227-2.373-2.339 11.793-11.623-3.254-3.207 0.004-0.004c-1.558-1.534-2.335-3.541-2.335-5.542 0-2.003 0.778-4.009 2.331-5.54v-0.004c1.554-1.531 3.59-2.298 5.624-2.298v0.006c2.038 0 4.077 0.765 5.626 2.292 1.554 1.531 2.329 3.539 2.329 5.546h-0.006c0 2.005-0.776 4.011-2.327 5.542l0.004 0.004-3.253 3.205 11.791 11.623-2.373 2.339-5.302-5.227z"></path>
</symbol>
<symbol id="icon-pinterest" viewBox="0 0 32 32">
<path d="M32 16.48c0.24-9.16-7.12-16.6-16.24-16.48-8.76 0.12-15.84 7.36-15.76 16.12 0.040 6.28 3.72 11.68 9 14.28 0.32 0.16 0.68-0.080 0.64-0.44-0.040-1.040 0-2.12 0.2-3s1-4.24 1.52-6.44c0.24-1.080 0.28-2.2 0.080-3.28-0.080-0.36-0.12-0.76-0.12-1.24 0-2.36 1.36-4.12 3.080-4.12 1.44 0 2.16 1.080 2.16 2.4 0 1.44-0.92 3.64-1.4 5.68-0.4 1.68 0.84 3.080 2.52 3.080 3.040 0 5.36-3.2 5.36-7.8 0-4.080-2.92-6.92-7.12-6.92-4.84 0-7.68 3.64-7.68 7.4 0 1.48 0.56 3.040 1.28 3.88 0.12 0.16 0.16 0.32 0.12 0.48-0.12 0.52-0.4 1.68-0.48 1.92-0.080 0.32-0.24 0.36-0.56 0.24-2.12-1.040-3.48-4.16-3.48-6.64 0-5.36 3.88-10.28 11.24-10.28 5.88 0 10.48 4.2 10.48 9.84 0 5.88-3.68 10.56-8.84 10.56-1.36 0-2.64-0.56-3.4-1.32-0.24-0.24-0.64-0.12-0.72 0.2-0.28 1-0.68 2.68-0.84 3.2-0.24 0.96-0.76 2.080-1.32 3.080-0.16 0.24 0 0.6 0.28 0.64 1.32 0.32 2.68 0.52 4.080 0.48 8.48-0.080 15.68-7.12 15.92-15.52z"></path>
</symbol>
<symbol id="icon-place" viewBox="0 0 32 32">
<path d="M4.75 11.25c0 5.557 4.243 11.587 7.986 16.797 0.89 1.238 1.742 2.423 2.484 3.536 0.174 0.261 0.467 0.417 0.78 0.417s0.606-0.157 0.78-0.417c0.741-1.112 1.594-2.298 2.484-3.536 3.744-5.21 7.986-11.24 7.986-16.797 0-6.204-5.046-11.25-11.25-11.25s-11.25 5.046-11.25 11.25zM21.625 11.25c0 3.102-2.523 5.625-5.625 5.625s-5.625-2.523-5.625-5.625c0-3.102 2.523-5.625 5.625-5.625s5.625 2.523 5.625 5.625z"></path>
<path d="M16 15c2.071 0 3.75-1.679 3.75-3.75s-1.679-3.75-3.75-3.75c-2.071 0-3.75 1.679-3.75 3.75s1.679 3.75 3.75 3.75z"></path>
</symbol>
<symbol id="icon-star" viewBox="0 0 32 32">
<path d="M16 0l4.944 10.016 11.056 1.616-8 7.792 1.888 11.008-9.888-5.2-9.888 5.2 1.888-11.008-8-7.792 11.056-1.616 4.944-10.016z"></path>
</symbol>
<symbol id="icon-twitter" viewBox="0 0 32 32">
<path d="M28.768 8.064c-0.96 0.416-1.952 0.704-3.008 0.832 1.088-0.64 1.92-1.664 2.304-2.912-1.024 0.608-2.144 1.024-3.328 1.28-0.96-1.024-2.336-1.664-3.84-1.664-2.912 0-5.248 2.368-5.248 5.248 0 0.416 0.032 0.8 0.128 1.184-4.352-0.192-8.192-2.304-10.784-5.472-1.856 3.328 0.224 6.080 1.6 7.008-0.832 0-1.664-0.256-2.368-0.64 0 2.592 1.824 4.736 4.192 5.216-0.512 0.16-1.664 0.256-2.368 0.096 0.672 2.080 2.624 3.616 4.896 3.648-1.792 1.408-4.416 2.528-7.776 2.176 2.336 1.504 5.088 2.368 8.064 2.368 9.664 0 14.912-8 14.912-14.912 0-0.224 0-0.448-0.032-0.672 1.088-0.8 1.984-1.728 2.656-2.784z"></path>
</symbol>
<symbol id="icon-vector-left" viewBox="0 0 17 32">
<path stroke-linejoin="round" stroke-linecap="round" stroke-miterlimit="4" stroke-width="2.9091" d="M16 1.455l-14.545 14.545 14.545 14.545"></path>
</symbol>
<symbol id="icon-vector-link" viewBox="0 0 60 32">
<path d="M59.108 17.508c0.833-0.833 0.833-2.184 0-3.017l-13.577-13.576c-0.833-0.833-2.184-0.833-3.017 0s-0.833 2.184 0 3.017l12.068 12.068-12.068 12.068c-0.833 0.833-0.833 2.184 0 3.017s2.184 0.833 3.017 0l13.577-13.577zM0 18.133h57.6v-4.267h-57.6v4.267z"></path>
</symbol>
<symbol id="icon-vector-right" viewBox="0 0 17 32">
<path stroke-linejoin="round" stroke-linecap="round" stroke-miterlimit="4" stroke-width="2.9091" d="M1.455 30.545l14.545-14.545-14.545-14.545"></path>
</symbol>
</defs>
</svg>
